<?xml version="1.0" encoding="UTF-8"?>
<svg width="16px" height="20px" viewBox="0 0 16 20" version="1.1" xmlns="http://www.w3.org/2000/svg" xmlns:xlink="http://www.w3.org/1999/xlink">
    <!-- Generator: Sketch 52.5 (67469) - http://www.bohemiancoding.com/sketch -->
    <title>icon_mima</title>
    <desc>Created with Sketch.</desc>
    <defs>
        <polygon id="path-1" points="0 0 14.9698 0 14.9698 19.9999 0 19.9999"></polygon>
    </defs>
    <g id="页面-1" stroke="none" stroke-width="1" fill="none" fill-rule="evenodd">
        <g id="画板" transform="translate(-735.000000, -98.000000)">
            <g id="icon_mima" transform="translate(735.333333, 98.000000)">
                <g id="Group-3">
                    <mask id="mask-2" fill="white">
                        <use xlink:href="#path-1"></use>
                    </mask>
                    <g id="Clip-2"></g>
                    <path d="M13.4698,15.5449 C13.4698,17.1749 12.1428,18.4999 10.5148,18.4999 L4.4548,18.4999 C2.8268,18.4999 1.4998,17.1749 1.4998,15.5449 L1.4998,11.1849 C1.4998,9.9129 2.3098,8.8249 3.4378,8.4099 C3.7548,8.2929 4.0978,8.2299 4.4548,8.2299 L4.9878,8.2299 L9.9828,8.2299 L10.5148,8.2299 C10.8718,8.2299 11.2148,8.2929 11.5328,8.4099 C12.6598,8.8249 13.4698,9.9129 13.4698,11.1849 L13.4698,15.5449 Z M7.4858,1.4999 C9.0228,1.4999 10.2758,2.7529 10.2758,4.2899 L10.2758,6.7299 L4.6958,6.7299 L4.6958,4.2899 C4.6958,2.7529 5.9478,1.4999 7.4858,1.4999 Z M11.7758,6.9129 L11.7758,4.2899 C11.7758,1.9199 9.8548,-0.0001 7.4858,-0.0001 C5.1158,-0.0001 3.1958,1.9199 3.1958,4.2899 L3.1958,6.9129 C1.3478,7.4549 -0.0002,9.1629 -0.0002,11.1849 L-0.0002,15.5449 C-0.0002,18.0049 1.9948,19.9999 4.4548,19.9999 L10.5148,19.9999 C12.9748,19.9999 14.9698,18.0049 14.9698,15.5449 L14.9698,11.1849 C14.9698,9.1629 13.6218,7.4549 11.7758,6.9129 Z" id="Fill-1" fill="#CCCCCC" mask="url(#mask-2)"></path>
                </g>
                <path d="M7.4854,13.6421 C6.8944,13.6421 6.4144,13.1621 6.4144,12.5711 C6.4144,11.9801 6.8944,11.5001 7.4854,11.5001 C8.0754,11.5001 8.5554,11.9801 8.5554,12.5711 C8.5554,13.1621 8.0754,13.6421 7.4854,13.6421 M7.4854,10.0001 C6.0654,10.0001 4.9144,11.1511 4.9144,12.5711 C4.9144,13.7391 5.6934,14.7231 6.7594,15.0371 C6.7454,15.0951 6.7354,15.1561 6.7354,15.2201 L6.7354,16.2751 C6.7354,16.6891 7.0704,17.0251 7.4854,17.0251 C7.8994,17.0251 8.2354,16.6891 8.2354,16.2751 L8.2354,15.2201 C8.2354,15.1561 8.2244,15.0951 8.2104,15.0371 C9.2764,14.7231 10.0554,13.7391 10.0554,12.5711 C10.0554,11.1511 8.9054,10.0001 7.4854,10.0001" id="Fill-4" fill="#CCCCCC"></path>
            </g>
        </g>
    </g>
</svg>